<svg width="168" height="62" viewBox="0 0 168 62" fill="none" xmlns="http://www.w3.org/2000/svg">
    <path d="M30.9885 25.7707C30.8308 25.5367 30.5527 25.4243 30.2838 25.4899L29.0876 25.78C28.9115 25.8268 28.7167 25.78 28.5591 25.6864L27.7802 25.1529C27.6226 25.0499 27.5299 24.8815 27.5021 24.6943L27.3352 23.4681C27.2981 23.1873 27.0941 22.972 26.8252 22.9065L25.5642 22.6444C25.2953 22.5883 25.0171 22.7099 24.8687 22.9439L24.2289 24.0016C24.1362 24.1607 23.9693 24.2731 23.7931 24.3011L22.8659 24.479C22.6897 24.5164 22.495 24.479 22.3467 24.3573L21.3638 23.6085C21.1413 23.44 20.8446 23.4307 20.6127 23.5804L19.5372 24.2918C19.3053 24.4415 19.1941 24.7223 19.259 25.0031L19.5464 26.2106C19.5928 26.3884 19.5557 26.585 19.4537 26.7347L18.9252 27.521C18.8232 27.6801 18.6563 27.7831 18.4708 27.8018L17.2562 27.9703C16.978 28.0077 16.7647 28.2136 16.6998 28.4851L16.4402 29.758C16.3846 30.0294 16.5051 30.3102 16.7369 30.46L17.7847 31.1058C17.9423 31.1994 18.0536 31.3679 18.0907 31.5458L18.2668 32.4818C18.3039 32.669 18.2576 32.8562 18.1463 33.0059L17.4045 33.9887C17.2376 34.2134 17.2283 34.5222 17.3767 34.7469L18.0814 35.8326C18.239 36.0666 18.5172 36.1789 18.7861 36.1134L19.9822 35.8233C20.1584 35.7765 20.3531 35.8233 20.5107 35.9169L21.2896 36.4504C21.438 36.5533 21.54 36.7218 21.5678 36.909L21.7347 38.1352C21.7718 38.416 21.9758 38.6313 22.2447 38.6968L23.2275 38.9027C24.4051 37.4893 25.5456 35.945 26.6212 34.2976C26.0092 34.672 25.2953 34.8779 24.5349 34.8779C22.3003 34.8779 20.4829 33.0434 20.4829 30.7876C20.4829 28.5319 22.3003 26.6973 24.5349 26.6973C26.7696 26.6973 28.5869 28.5319 28.5869 30.7876C28.5869 30.8906 28.5869 31.0029 28.5777 31.1058C28.8929 30.5536 29.1989 30.0014 29.4863 29.4398C30.0983 28.2698 30.6639 27.1372 31.1646 26.0327L30.9885 25.7519V25.7707Z" fill="url(#paint0_linear_11589_9448)"/>
    <path d="M12.8705 15.792C12.8705 17.5985 11.4147 19.068 9.62519 19.068C8.8185 19.068 8.07672 18.7685 7.50183 18.2724C6.81568 17.6734 6.37988 16.7842 6.37988 15.8014C6.37988 13.9949 7.83564 12.5254 9.62519 12.5254C10.5988 12.5254 11.4797 12.9653 12.0731 13.6579C12.5645 14.2289 12.8705 14.9777 12.8705 15.8014V15.792Z" fill="url(#paint1_linear_11589_9448)"/>
    <path d="M42.6718 45.819C42.6718 47.6254 41.216 49.095 39.4265 49.095C38.4529 49.095 37.572 48.655 36.9786 47.9624C36.4871 47.3914 36.1904 46.6426 36.1904 45.819C36.1904 44.0125 37.6462 42.543 39.4357 42.543C40.2424 42.543 40.9842 42.8425 41.5591 43.3386C42.2452 43.9376 42.681 44.8268 42.681 45.8096L42.6718 45.819Z" fill="url(#paint2_linear_11589_9448)"/>
    <path d="M24.5257 10.0094C20.4551 10.0094 16.6535 11.1794 13.4267 13.1918C14.0943 14.0341 14.493 15.1012 14.493 16.2525C14.493 18.9669 12.314 21.1571 9.63435 21.1571C8.48458 21.1571 7.43681 20.7546 6.6023 20.0901C4.60875 23.338 3.45898 27.1662 3.45898 31.2659C3.45898 38.0986 6.64866 44.1733 11.6001 48.067C13.1578 47.7207 14.9288 46.8502 16.774 45.5305C17.6734 44.8846 18.5821 44.1452 19.4815 43.3215C14.8268 41.3372 11.563 36.6853 11.563 31.2659C11.563 24.04 17.3675 18.1806 24.5257 18.1806C27.873 18.1806 30.9236 19.4629 33.2231 21.5689C34.4749 18.19 35.2259 15.3445 35.671 13.2198C32.435 11.1794 28.6148 10 24.5164 10L24.5257 10.0094ZM44.2572 23.7872C42.2543 28.8135 39.4448 33.9335 35.8935 39.0534C31.7859 44.9595 27.0941 49.4336 21.9109 52.382C22.7732 52.4849 23.6448 52.5411 24.5257 52.5411C28.5962 52.5411 32.3979 51.3711 35.6246 49.3587C34.957 48.5163 34.5583 47.4493 34.5583 46.298C34.5583 43.5836 36.7373 41.3934 39.417 41.3934C40.5668 41.3934 41.6146 41.7958 42.4491 42.4604C44.4426 39.2125 45.5924 35.3842 45.5924 31.2846C45.5924 28.6451 45.1195 26.1272 44.2479 23.7966L44.2572 23.7872Z" fill="url(#paint3_linear_11589_9448)"/>
    <path d="M46.9929 11.9079L45.7412 11.571C45.6021 13.0311 45.0921 16.4101 43.3396 21.193C42.0693 24.6656 40.1314 28.8776 37.2014 33.6324C36.4039 34.9241 35.5323 36.2626 34.5773 37.6385C33.4461 39.2671 32.2963 40.746 31.1465 42.0658C27.0389 46.8019 22.922 49.6754 19.3522 51.4164C14.8273 53.6253 11.2018 53.9997 9.64404 53.9997C5.16551 53.9997 1.54004 50.34 1.54004 45.8191C1.54004 44.2747 1.96657 42.8239 2.69908 41.5978C0.9837 47.897 6.22256 50.1153 11.3594 49.3104C11.9899 49.2168 12.639 49.0389 13.3066 48.8049C14.716 48.2995 16.1996 47.4852 17.7202 46.4088C18.8793 45.5757 20.0569 44.5929 21.2252 43.4697C23.0611 41.7007 24.8877 39.5947 26.6124 37.1986C28.1423 35.0832 29.5981 32.7432 30.9147 30.2254C30.9333 30.1879 30.9611 30.1411 30.9796 30.1037C32.4261 27.3519 33.5666 24.7685 34.4753 22.4098C35.8012 18.9841 36.6172 16.0357 37.1272 13.7612C37.5723 11.7675 37.7762 10.2886 37.869 9.44625L36.5708 9.09993C35.9496 8.93145 35.7641 8.13585 36.237 7.69593L43.3582 1.65875C43.794 1.26563 44.4894 1.45283 44.6656 2.01443L47.9572 10.869C48.1612 11.4867 47.5956 12.0858 46.9744 11.9173L46.9929 11.9079Z" fill="url(#paint4_linear_11589_9448)"/>
    <path d="M65.1118 21H69.4388L62.6579 41.1101H58.7229L52 21H56.4432L60.7121 36.2438L65.0972 21H65.1118Z" fill="#0D67B0"/>
    <path d="M85.0913 21H88.9828V41.1101H84.8155L76.7132 26.7604L76.6551 41.1101H72.7637V21H77.1488L85.0187 35.0126L85.0768 21H85.0913Z" fill="#0D67B0"/>
    <path d="M98.015 33.8253V41.1101H93.8477V21H102.952C104.898 21 106.408 21.5716 107.511 22.7149C108.615 23.8582 109.152 25.4412 109.152 27.4346C109.152 28.8418 108.76 30.1316 107.99 31.2896C106.872 32.9752 105.13 33.8253 102.778 33.8253H98.0004H98.015ZM98.015 30.3515H101.906C103.228 30.3515 104.142 29.9411 104.636 29.1056C104.883 28.6659 105.014 28.0209 105.014 27.2001C105.014 26.2327 104.723 25.5292 104.157 25.1041C103.576 24.6644 102.647 24.4592 101.355 24.4592H98.015V30.3515Z" fill="#0D67B0"/>
    <path d="M121.712 24.5325V41.1101H117.544V24.5325H111.504V21H127.708V24.5325H121.712Z" fill="#0D67B0"/>
    <path d="M139.092 34.7047H142.867C142.867 35.4816 143.099 36.1265 143.55 36.6395C144.232 37.4017 145.335 37.7828 146.86 37.7828C147.993 37.7828 148.878 37.6362 149.517 37.3284C150.374 36.918 150.795 36.2584 150.795 35.335C150.795 34.6754 150.49 34.1477 149.866 33.7813C149.416 33.5175 148.603 33.239 147.397 32.9605L145.35 32.4768C143.346 32.0224 141.967 31.5387 141.241 31.0257C139.992 30.1609 139.368 28.7831 139.368 26.9216C139.368 25.4558 139.818 24.21 140.718 23.1839C141.952 21.7622 143.927 21.0586 146.628 21.0586C149.329 21.0586 151.129 21.7915 152.436 23.2572C153.452 24.3858 153.96 25.705 153.96 27.2001H150.185C150.098 26.4379 149.88 25.8663 149.532 25.4558C148.893 24.7083 147.847 24.3419 146.352 24.3419C145.466 24.3419 144.726 24.5031 144.13 24.8402C143.419 25.2506 143.056 25.8516 143.056 26.6284C143.056 27.2734 143.288 27.7717 143.738 28.1089C144 28.3141 144.435 28.4899 145.06 28.6365L149.663 29.7505C151.231 30.1316 152.378 30.6446 153.104 31.2602C154.091 32.1104 154.585 33.3123 154.585 34.8953C154.585 36.8154 153.961 38.3105 152.697 39.3658C151.303 40.5531 149.445 41.1394 147.136 41.1394C144.101 41.1394 141.909 40.3772 140.558 38.8381C139.6 37.7388 139.106 36.3757 139.106 34.734L139.092 34.7047Z" fill="#0D67B0"/>
    <path d="M162.383 21V41.1101H158.216V21H162.383Z" fill="#0D67B0"/>
    <defs>
        <linearGradient id="paint0_linear_11589_9448" x1="16.4309" y1="30.7689" x2="31.1646" y2="30.7689" gradientUnits="userSpaceOnUse">
            <stop stop-color="#0D67B0"/>
            <stop offset="1" stop-color="#009FE2"/>
        </linearGradient>
        <linearGradient id="paint1_linear_11589_9448" x1="41.8001" y1="48.2618" x2="7.89044" y2="14.6697" gradientUnits="userSpaceOnUse">
            <stop stop-color="#0D67B0"/>
            <stop offset="1" stop-color="#009FE2"/>
        </linearGradient>
        <linearGradient id="paint2_linear_11589_9448" x1="41.828" y1="48.2432" x2="7.91831" y2="14.6511" gradientUnits="userSpaceOnUse">
            <stop stop-color="#0D67B0"/>
            <stop offset="1" stop-color="#009FE2"/>
        </linearGradient>
        <linearGradient id="paint3_linear_11589_9448" x1="41.1695" y1="48.4601" x2="8.14896" y2="15.7489" gradientUnits="userSpaceOnUse">
            <stop stop-color="#0D67B0"/>
            <stop offset="1" stop-color="#009FE2"/>
        </linearGradient>
        <linearGradient id="paint4_linear_11589_9448" x1="42.3939" y1="1.32179" x2="8.9826" y2="54.335" gradientUnits="userSpaceOnUse">
            <stop stop-color="#FFCF1C"/>
            <stop offset="1" stop-color="#ED9104"/>
        </linearGradient>
    </defs>
</svg>
